<svg width="48" height="48" viewBox="0 0 48 48" fill="none" xmlns="http://www.w3.org/2000/svg">
<path fill-rule="evenodd" clip-rule="evenodd" d="M4 24C4 12.9543 12.9543 4 24 4C35.0457 4 44 12.9543 44 24C44 30.41 40.9845 36.1157 36.2946 39.7759C35.4667 37.366 33.9459 35.2456 31.9139 33.6864C29.6435 31.9443 26.8617 31 24 31C21.1383 31 18.3565 31.9443 16.0861 33.6864C14.0541 35.2456 12.5333 37.366 11.7054 39.7759C7.01555 36.1157 4 30.41 4 24ZM30.6964 35.2731C32.5693 36.7103 33.9289 38.7108 34.5767 40.9777C31.5085 42.8931 27.8835 44 24 44C20.1165 44 16.4915 42.8931 13.4233 40.9777C14.0711 38.7108 15.4307 36.7103 17.3036 35.2731C19.2247 33.799 21.5785 33 24 33C26.4215 33 28.7753 33.799 30.6964 35.2731ZM19 18C19 15.2386 21.2386 13 24 13C26.7614 13 29 15.2386 29 18C29 20.7614 26.7614 23 24 23C21.2386 23 19 20.7614 19 18ZM24 11C20.134 11 17 14.134 17 18C17 21.866 20.134 25 24 25C27.866 25 31 21.866 31 18C31 14.134 27.866 11 24 11Z" fill="#222222"/>
<rect x="4.5" y="4.5" width="39" height="39" rx="19.5" stroke="#222222"/>
</svg>
