<svg width="48" height="48" viewBox="0 0 48 48" fill="none" xmlns="http://www.w3.org/2000/svg">
<path fill-rule="evenodd" clip-rule="evenodd" d="M25.6327 14.3673L31.1716 8.82843C32.5049 7.4951 33.1716 6.82843 34 6.82843C34.8284 6.82843 35.4951 7.4951 36.8284 8.82843L39.1716 11.1716C40.5049 12.5049 41.1716 13.1716 41.1716 14C41.1716 14.8284 40.5049 15.4951 39.1716 16.8284L33.6758 22.3242C30.3593 20.3848 27.5957 17.6418 25.6327 14.3673ZM24.1785 15.8215L8.85638 31.1436C8.43132 31.5687 8.21879 31.7812 8.07906 32.0423C7.93932 32.3034 7.88038 32.5981 7.76248 33.1876L6.14709 41.2646C6.08057 41.5972 6.04731 41.7635 6.14191 41.8581C6.23651 41.9527 6.4028 41.9194 6.73536 41.8529L6.7354 41.8529L6.73544 41.8529L14.8124 40.2375L14.8125 40.2375C15.4019 40.1196 15.6966 40.0607 15.9577 39.921C16.2188 39.7812 16.4313 39.5687 16.8563 39.1437L16.8564 39.1436L16.8564 39.1436L32.2179 23.7821C28.9521 21.7788 26.2028 19.0488 24.1785 15.8215Z" fill="#D9D9D9"/>
</svg>
