<svg width="48" height="48" viewBox="0 0 48 48" fill="none" xmlns="http://www.w3.org/2000/svg">
<path fill-rule="evenodd" clip-rule="evenodd" d="M42.0001 12H6.00012V18C7.88574 18 8.82855 18 9.41433 18.5858C10.0001 19.1716 10.0001 20.1144 10.0001 22V36C10.0001 38.8284 10.0001 40.2426 10.8788 41.1213C11.7575 42 13.1717 42 16.0001 42H32.0001C34.8285 42 36.2428 42 37.1214 41.1213C38.0001 40.2426 38.0001 38.8284 38.0001 36V22C38.0001 20.1144 38.0001 19.1716 38.5859 18.5858C39.1717 18 40.1145 18 42.0001 18V12ZM20.0001 22C20.0001 21.4477 19.5524 21 19.0001 21C18.4478 21 18.0001 21.4477 18.0001 22V32C18.0001 32.5523 18.4478 33 19.0001 33C19.5524 33 20.0001 32.5523 20.0001 32V22ZM30.0001 22C30.0001 21.4477 29.5524 21 29.0001 21C28.4478 21 28.0001 21.4477 28.0001 22V32C28.0001 32.5523 28.4478 33 29.0001 33C29.5524 33 30.0001 32.5523 30.0001 32V22Z" fill="#D9D9D9"/>
<path d="M20.1363 6.74118C20.3642 6.52855 20.8664 6.34066 21.565 6.20665C22.2635 6.07264 23.1195 6 24 6C24.8805 6 25.7365 6.07264 26.435 6.20665C27.1336 6.34066 27.6358 6.52855 27.8637 6.74118" stroke="#D9D9D9" stroke-width="2" stroke-linecap="round"/>
</svg>
